<?xml version="1.0" standalone="no"?>
<!DOCTYPE svg PUBLIC "-//W3C//DTD SVG 20010904//EN"
 "http://www.w3.org/TR/2001/REC-SVG-20010904/DTD/svg10.dtd">
<svg version="1.0" xmlns="http://www.w3.org/2000/svg"
 width="564.000000pt" height="1002.000000pt" viewBox="0 0 564.000000 1002.000000"
 preserveAspectRatio="xMidYMid meet">

<g transform="translate(0.000000,1002.000000) scale(0.100000,-0.100000)"
fill="#000000" stroke="none">
<path d="M1752 6863 c-6 -2 -10 -9 -6 -14 3 -5 -6 -9 -20 -9 -19 0 -26 -5 -26
-20 0 -11 7 -23 15 -26 9 -4 15 -19 15 -39 0 -27 6 -37 35 -55 43 -27 44 -32
4 -18 -33 11 -65 53 -61 79 2 10 -6 19 -20 22 -29 8 -38 -2 -43 -43 -3 -18
-11 -40 -20 -50 -24 -27 -30 -25 90 -31 67 -3 144 4 138 14 -2 4 1 7 6 7 6 0
11 -9 11 -20 0 -11 4 -20 8 -20 13 0 44 -71 50 -115 13 -87 8 -172 -11 -193
-16 -18 -16 -20 -2 -26 9 -3 50 -6 92 -6 66 0 73 2 59 15 -8 8 -26 15 -40 15
-24 0 -46 24 -46 49 0 8 239 11 796 11 722 0 796 -1 790 -16 -3 -9 -6 -22 -6
-30 0 -8 -3 -13 -7 -13 -22 4 -116 -3 -105 -8 27 -11 11 -32 -31 -38 -64 -10
-73 -18 -59 -50 7 -14 12 -35 12 -45 0 -15 7 -20 25 -20 15 0 25 -6 25 -14 0
-8 6 -17 13 -19 6 -3 -152 -5 -352 -6 -200 0 -366 -2 -368 -4 -2 -3 70 -8 161
-12 l165 -7 4 -27 4 -26 2 28 c1 20 6 27 21 27 19 0 20 -7 20 -120 l0 -120
-366 0 -367 0 6 68 c4 37 7 91 7 120 l0 52 88 1 c48 0 96 4 107 9 13 5 -21 9
-95 9 l-115 1 1 -62 c1 -35 0 -48 -3 -30 -5 39 -23 43 -23 4 0 -26 -2 -28 -35
-24 -21 3 -35 0 -35 -7 0 -6 5 -11 10 -11 6 0 10 -13 10 -30 0 -27 3 -30 30
-30 l30 0 0 -150 c0 -121 -3 -148 -14 -144 -8 3 -11 15 -8 30 4 20 0 24 -20
24 l-24 0 3 113 4 112 -20 -42 c-20 -43 -29 -48 -97 -55 l-30 -4 8 55 c5 30
11 58 14 63 3 5 8 41 10 81 6 88 9 98 29 91 22 -9 32 26 12 41 -10 7 -17 17
-17 22 0 17 -33 41 -70 50 -19 5 -36 17 -38 26 -3 13 7 17 50 20 29 2 -43 4
-159 5 l-213 2 -1 -282 c0 -168 -4 -275 -9 -263 -5 11 -9 108 -10 215 l-2 195
-14 -95 c-7 -52 -14 -126 -15 -163 -2 -37 -6 -70 -10 -73 -4 -2 -5 -13 -2 -24
3 -11 0 -20 -6 -20 -6 0 -11 -9 -11 -20 0 -11 -8 -42 -19 -69 -10 -28 -16 -52
-13 -55 2 -3 -7 -10 -21 -15 -23 -9 -24 -13 -17 -44 4 -19 10 -39 13 -44 11
-18 17 -142 7 -148 -6 -4 -7 -13 -1 -23 8 -17 23 -112 22 -147 -1 -58 54 -52
69 9 6 22 15 49 21 60 8 13 7 16 -1 11 -6 -4 -18 1 -25 11 -16 21 -22 244 -6
244 5 0 12 -44 16 -97 4 -53 10 -106 14 -117 7 -17 9 -16 18 11 13 37 61 83
86 83 18 0 20 -4 32 -55 l7 -30 11 25 c58 139 101 230 109 230 4 0 13 19 19
43 6 23 14 36 16 29 4 -10 8 -10 18 -2 10 8 19 8 34 0 12 -6 21 -13 21 -16 0
-3 -5 -2 -12 2 -7 5 -8 3 -3 -5 11 -19 74 -43 95 -36 21 7 74 -35 94 -74 8
-16 16 -84 20 -177 9 -206 37 -296 66 -210 6 20 21 43 33 51 18 13 19 15 4 15
-13 0 -17 9 -17 44 0 37 4 45 23 50 37 10 47 7 47 -14 0 -25 17 -26 25 -1 8
28 37 36 52 15 11 -15 13 -5 13 63 0 44 -4 93 -9 109 -5 16 -12 43 -15 60 -6
40 1 42 144 51 58 3 110 10 117 15 7 5 64 12 127 15 l115 6 11 -27 c5 -15 10
-53 11 -84 0 -31 6 -86 13 -122 11 -58 15 -65 34 -63 14 2 22 -3 22 -12 0 -21
21 -30 31 -12 7 12 13 13 34 4 14 -7 25 -16 25 -22 0 -5 9 -21 20 -35 11 -14
20 -37 20 -51 0 -26 34 -80 43 -69 2 3 18 63 36 133 26 99 32 138 26 174 -5
33 -9 42 -16 32 -7 -11 -9 -10 -9 6 0 27 15 49 28 41 6 -3 14 -1 18 5 4 6 19
9 37 5 16 -3 36 -1 43 5 7 6 19 9 25 7 20 -7 47 -105 42 -151 -4 -33 0 -47 16
-66 15 -17 21 -20 21 -9 0 8 9 25 20 38 11 12 17 26 15 30 -3 5 11 8 31 8 22
0 44 8 58 21 12 12 30 21 40 21 19 0 46 -55 46 -95 0 -15 7 -33 15 -41 8 -9
15 -13 15 -9 0 3 10 -1 22 -9 37 -26 35 -28 58 63 9 33 14 41 21 30 6 -10 9
-11 9 -1 0 9 5 10 19 2 11 -5 26 -10 33 -10 7 1 -2 7 -20 15 -34 15 -52 47
-52 95 0 19 -7 33 -20 40 -11 6 -20 16 -18 23 3 18 -12 57 -23 57 -5 0 -9 5
-9 10 0 6 7 10 15 10 8 0 16 6 17 13 1 14 3 29 23 172 8 63 11 112 5 115 -5 3
-10 26 -12 50 l-3 45 -207 3 -208 2 0 65 0 65 50 0 c42 0 52 4 66 25 18 27 50
35 40 10 -4 -11 1 -15 18 -15 25 0 36 17 36 56 0 17 -4 23 -12 18 -6 -4 -8 -3
-5 3 3 5 2 26 -4 46 -7 26 -16 37 -29 37 -24 0 -33 44 -27 126 3 44 12 71 35
108 17 27 39 69 48 92 9 24 20 41 25 38 8 -5 13 9 10 28 -2 13 61 40 80 35 11
-3 17 -2 14 2 -2 5 1 22 7 39 10 25 10 34 0 44 -9 9 -12 6 -12 -18 l0 -29
-1015 0 -1015 0 0 31 c0 16 5 35 12 42 12 12 3 15 -20 5z m1348 -108 c0 -10
-55 -54 -67 -55 -7 0 -13 -4 -13 -10 0 -5 -7 -10 -15 -10 -8 0 -15 -6 -15 -14
0 -17 -51 -56 -74 -56 -9 0 -16 -6 -16 -12 0 -7 -20 -25 -43 -40 -71 -47 -111
-80 -142 -120 l-30 -37 -309 -1 -308 0 5 23 c3 12 10 54 17 92 7 39 19 97 27
130 9 33 18 72 20 88 l5 27 479 0 c264 0 479 -2 479 -5z m-1020 -33 c0 -42
-22 -142 -31 -142 -4 0 -15 -36 -25 -80 l-17 -81 -29 52 c-26 49 -28 60 -28
166 l0 113 65 0 c65 0 65 0 65 -28z m-140 -478 c0 -8 -7 -14 -15 -14 -15 0
-21 21 -9 33 10 9 24 -2 24 -19z m100 16 c0 -5 -7 -10 -16 -10 -8 0 -12 5 -9
10 3 6 10 10 16 10 5 0 9 -4 9 -10z m-56 -86 c4 -9 5 -17 4 -18 -28 -11 -47
-30 -63 -64 -21 -44 -35 -54 -35 -25 0 19 68 123 80 123 4 0 11 -7 14 -16z
m166 -9 c7 -14 17 -25 22 -25 5 0 6 -5 3 -10 -4 -6 -12 -7 -18 -3 -7 5 -30 13
-51 18 -62 16 -57 40 10 44 13 1 26 -9 34 -24z m-110 -5 c0 -5 -5 -10 -11 -10
-5 0 -7 5 -4 10 3 6 8 10 11 10 2 0 4 -4 4 -10z m1392 -63 c4 -6 8 -60 8 -119
l0 -108 -170 0 c-163 0 -170 1 -170 20 0 13 7 20 20 20 13 0 20 7 20 20 0 15
7 20 25 20 18 0 25 -5 25 -19 0 -13 9 -20 30 -23 l30 -5 0 110 0 110 87 -7
c51 -4 90 -12 95 -19z m-192 -42 l0 -55 -70 0 -70 0 0 55 0 55 70 0 70 0 0
-55z m-1392 -38 c3 -31 8 -38 38 -49 19 -6 34 -15 34 -19 0 -3 18 -29 40 -57
22 -27 40 -59 40 -69 0 -26 -40 -44 -76 -34 -36 9 -88 100 -89 156 -1 22 -5
57 -10 79 -6 31 -5 38 6 34 8 -2 15 -21 17 -41z m267 -47 c8 -12 -5 -80 -15
-80 -4 0 -10 19 -14 41 -6 40 -8 41 -37 35 -18 -3 -28 -2 -24 4 8 13 82 13 90
0z m-125 -15 c7 -8 9 -23 5 -32 -6 -17 -7 -17 -21 1 -26 36 -12 64 16 31z
m1825 -55 c-76 -12 -365 -12 -365 0 0 6 75 10 208 9 139 -1 191 -4 157 -9z
m-299 -102 c118 -2 167 -7 176 -16 10 -10 12 -52 11 -165 -2 -133 -4 -153 -20
-165 -17 -12 -18 -8 -21 55 -2 37 1 84 7 103 6 19 12 61 14 93 l4 57 -146 1
c-80 1 -159 4 -176 8 -27 5 -30 10 -32 46 -2 38 -1 39 9 13 l11 -27 163 -3z
m-1543 -125 c-6 -14 -23 -18 -23 -4 0 4 -34 9 -75 9 -41 1 -85 7 -97 14 -20
11 -12 13 69 16 84 2 94 5 105 25 11 21 12 21 19 -12 4 -19 5 -40 2 -48z
m-173 -22 c0 -14 -37 -23 -62 -15 -22 7 -22 7 -3 15 28 11 65 11 65 0z m1481
-101 c5 0 9 -11 9 -25 0 -16 -6 -25 -15 -25 -12 0 -15 12 -14 53 1 28 4 40 6
25 2 -16 9 -28 14 -28z m239 10 c0 -6 -32 -10 -77 -9 -53 0 -72 3 -58 9 28 12
135 12 135 0z m-1086 -51 c11 -56 9 -59 -34 -59 -35 0 -40 3 -40 23 0 12 -3
32 -6 45 -6 20 -3 22 34 22 36 0 40 -3 46 -31z m60 -95 c11 -29 6 -62 -10 -68
-30 -11 -72 -6 -78 10 -8 21 -8 59 1 67 14 14 81 7 87 -9z"/>
<path d="M1660 6850 c-23 -7 -23 -8 -3 -9 12 -1 25 4 28 9 3 6 5 10 3 9 -2 -1
-14 -5 -28 -9z"/>
<path d="M1548 6819 c-9 -6 -6 -9 10 -9 12 0 25 -7 28 -15 4 -8 10 -15 16 -15
13 0 38 26 38 39 0 12 -72 12 -92 0z"/>
<path d="M1520 6780 c-12 -12 -20 -33 -20 -55 0 -24 6 -37 20 -45 16 -9 20 -8
20 5 0 8 -7 15 -15 15 -8 0 -15 5 -15 10 0 6 7 10 15 10 8 0 15 5 15 11 0 6
-7 9 -15 5 -8 -3 -15 -1 -15 4 0 6 5 10 10 10 6 0 10 7 10 15 0 9 9 15 25 15
14 0 25 5 25 10 0 17 -39 11 -60 -10z"/>
<path d="M1600 6741 l-25 -7 28 -6 c19 -4 27 -1 27 8 0 8 -1 14 -2 13 -2 -1
-14 -4 -28 -8z"/>
<path d="M1590 6694 c0 -9 5 -14 12 -12 18 6 21 28 4 28 -9 0 -16 -7 -16 -16z"/>
<path d="M2362 6310 c-17 -28 -15 -46 10 -70 30 -27 38 -25 38 10 0 29 2 30
45 30 38 0 45 -3 45 -19 0 -35 12 -51 36 -51 23 0 24 3 24 60 0 47 -3 60 -15
60 -8 0 -15 -4 -15 -10 0 -5 -22 -10 -50 -10 -27 0 -50 5 -50 10 0 19 -55 11
-68 -10z"/>
<path d="M1848 6313 c6 -2 18 -2 25 0 6 3 1 5 -13 5 -14 0 -19 -2 -12 -5z"/>
<path d="M3658 6087 c-15 -32 -15 -36 -1 -41 9 -4 20 -1 25 6 6 10 8 10 8 1 0
-9 19 -13 63 -12 l62 1 -46 8 c-61 10 -87 25 -91 52 -3 18 -5 16 -20 -15z"/>
<path d="M1533 5588 c-13 -6 -23 -15 -23 -20 0 -4 -7 -8 -15 -8 -8 0 -15 -4
-15 -10 0 -11 42 -13 78 -4 15 4 22 14 22 30 0 26 -12 29 -47 12z"/>
<path d="M3915 5550 c-8 -13 5 -13 25 0 13 8 13 10 -2 10 -9 0 -20 -4 -23 -10z"/>
<path d="M3960 5527 c-30 -15 -54 -60 -45 -86 6 -20 19 -22 48 -5 15 9 16 15
8 37 -10 24 -8 29 14 39 33 15 55 -4 55 -48 0 -31 -19 -51 -21 -21 0 6 -4 3
-8 -8 -16 -40 35 -41 68 -1 28 34 -19 106 -68 106 -14 0 -37 -6 -51 -13z"/>
</g>
</svg>
