<svg xmlns="http://www.w3.org/2000/svg" xmlns:xlink="http://www.w3.org/1999/xlink" width="500" zoomAndPan="magnify" viewBox="0 0 375 374.999991" height="500" preserveAspectRatio="xMidYMid meet" version="1.0"><defs><g/><clipPath id="b5b39ab925"><path d="M 167 124 L 207 124 L 207 178 L 167 178 Z M 167 124 " clip-rule="nonzero"/></clipPath><clipPath id="e793cd5ea8"><path d="M 194.753906 124.605469 L 206.828125 131.890625 L 179.539062 177.109375 L 167.464844 169.820312 Z M 194.753906 124.605469 " clip-rule="nonzero"/></clipPath><clipPath id="ca7851373b"><path d="M 168 131 L 196 131 L 196 159 L 168 159 Z M 168 131 " clip-rule="nonzero"/></clipPath><clipPath id="d72df3a98f"><path d="M 178.839844 131.804688 L 195.296875 141.738281 L 185.175781 158.5 L 168.722656 148.570312 Z M 178.839844 131.804688 " clip-rule="nonzero"/></clipPath><clipPath id="3df86ce4c6"><path d="M 187 133 L 214 133 L 214 159 L 187 159 Z M 187 133 " clip-rule="nonzero"/></clipPath><clipPath id="85ee5718dd"><path d="M 197.007812 133.59375 L 213.460938 143.527344 L 204.421875 158.5 L 187.96875 148.570312 Z M 197.007812 133.59375 " clip-rule="nonzero"/></clipPath></defs><rect x="-37.5" width="450" fill="#ffffff" y="-37.499999" height="449.999989" fill-opacity="1"/><rect x="-37.5" width="450" fill="#223046" y="-37.499999" height="449.999989" fill-opacity="1"/><g fill="#b6b422" fill-opacity="1"><g transform="translate(70.201845, 227.780947)"><g><path d="M 8.984375 0 L 6.84375 -3.546875 C 6.726562 -3.535156 6.546875 -3.53125 6.296875 -3.53125 L 3.515625 -3.53125 L 3.515625 0 L 1.546875 0 L 1.546875 -11.734375 L 6.296875 -11.734375 C 7.796875 -11.734375 8.957031 -11.382812 9.78125 -10.6875 C 10.613281 -9.988281 11.03125 -9.003906 11.03125 -7.734375 C 11.03125 -6.796875 10.820312 -6 10.40625 -5.34375 C 9.988281 -4.695312 9.382812 -4.222656 8.59375 -3.921875 L 11.234375 0 Z M 3.515625 -5.3125 L 6.296875 -5.3125 C 8.203125 -5.3125 9.15625 -6.097656 9.15625 -7.671875 C 9.15625 -9.191406 8.203125 -9.953125 6.296875 -9.953125 L 3.515625 -9.953125 Z M 3.515625 -5.3125 "/></g></g></g><g fill="#b6b422" fill-opacity="1"><g transform="translate(89.035658, 227.780947)"><g><path d="M 9.125 -2.65625 L 3.203125 -2.65625 L 2.078125 0 L 0.015625 0 L 5.203125 -11.734375 L 7.21875 -11.734375 L 12.359375 0 L 10.25 0 Z M 8.359375 -4.40625 L 6.15625 -9.625 L 3.9375 -4.40625 Z M 8.359375 -4.40625 "/></g></g></g><g fill="#b6b422" fill-opacity="1"><g transform="translate(108.121012, 227.780947)"><g><path d="M 13.953125 0 L 12.125 0 L 12.109375 -8.765625 L 8.40625 -1.21875 L 7.109375 -1.21875 L 3.40625 -8.765625 L 3.40625 0 L 1.546875 0 L 1.546875 -11.734375 L 3.890625 -11.734375 L 7.765625 -3.9375 L 11.625 -11.734375 L 13.953125 -11.734375 Z M 13.953125 0 "/></g></g></g><g fill="#b6b422" fill-opacity="1"><g transform="translate(130.342261, 227.780947)"><g><path d="M 3.515625 0 L 1.546875 0 L 1.546875 -11.734375 L 3.515625 -11.734375 Z M 3.515625 0 "/></g></g></g><g fill="#b6b422" fill-opacity="1"><g transform="translate(142.116102, 227.780947)"><g><path d="M 9.40625 -9.953125 L 3.515625 -9.953125 L 3.515625 -6.578125 L 8.859375 -6.578125 L 8.859375 -4.8125 L 3.515625 -4.8125 L 3.515625 0 L 1.546875 0 L 1.546875 -11.734375 L 9.421875 -11.734375 Z M 9.40625 -9.953125 "/></g></g></g><g fill="#b6b422" fill-opacity="1"><g transform="translate(158.468026, 227.780947)"><g><path d="M 3.515625 0 L 1.546875 0 L 1.546875 -11.734375 L 3.515625 -11.734375 Z M 3.515625 0 "/></g></g></g><g fill="#b6b422" fill-opacity="1"><g transform="translate(170.241867, 227.780947)"><g><path d="M 9.921875 -9.953125 L 3.515625 -9.953125 L 3.515625 -6.796875 L 9.25 -6.796875 L 9.25 -5.015625 L 3.515625 -5.015625 L 3.515625 -1.78125 L 10.125 -1.78125 L 10.125 0 L 1.546875 0 L 1.546875 -11.734375 L 9.921875 -11.734375 Z M 9.921875 -9.953125 "/></g></g></g><g fill="#b6b422" fill-opacity="1"><g transform="translate(187.952125, 227.780947)"><g><path d="M 1.546875 -11.734375 L 6.359375 -11.734375 C 8.109375 -11.734375 9.554688 -11.179688 10.703125 -10.078125 C 11.847656 -8.972656 12.421875 -7.566406 12.421875 -5.859375 C 12.421875 -4.160156 11.84375 -2.757812 10.6875 -1.65625 C 9.539062 -0.550781 8.078125 0 6.296875 0 L 1.546875 0 Z M 3.515625 -9.953125 L 3.515625 -1.78125 L 6.40625 -1.78125 C 7.550781 -1.78125 8.503906 -2.160156 9.265625 -2.921875 C 10.035156 -3.691406 10.421875 -4.664062 10.421875 -5.84375 C 10.421875 -7.03125 10.023438 -8.007812 9.234375 -8.78125 C 8.453125 -9.5625 7.484375 -9.953125 6.328125 -9.953125 Z M 3.515625 -9.953125 "/></g></g></g><g fill="#3d3b3a" fill-opacity="1"><g transform="translate(207.662774, 227.780947)"><g/></g></g><g fill="#d10606" fill-opacity="1"><g transform="translate(218.701836, 227.780947)"><g><path d="M 13.953125 0 L 12.125 0 L 12.109375 -8.765625 L 8.40625 -1.21875 L 7.109375 -1.21875 L 3.40625 -8.765625 L 3.40625 0 L 1.546875 0 L 1.546875 -11.734375 L 3.890625 -11.734375 L 7.765625 -3.9375 L 11.625 -11.734375 L 13.953125 -11.734375 Z M 13.953125 0 "/></g></g></g><g fill="#d10606" fill-opacity="1"><g transform="translate(240.923088, 227.780947)"><g><path d="M 11.515625 -11.734375 L 11.515625 -4.859375 C 11.515625 -3.328125 11.0625 -2.117188 10.15625 -1.234375 C 9.25 -0.359375 8.003906 0.078125 6.421875 0.078125 C 4.835938 0.078125 3.585938 -0.359375 2.671875 -1.234375 C 1.765625 -2.117188 1.3125 -3.328125 1.3125 -4.859375 L 1.3125 -11.734375 L 3.28125 -11.734375 L 3.28125 -4.859375 C 3.28125 -3.878906 3.5625 -3.101562 4.125 -2.53125 C 4.695312 -1.96875 5.46875 -1.6875 6.4375 -1.6875 C 7.394531 -1.6875 8.148438 -1.96875 8.703125 -2.53125 C 9.265625 -3.09375 9.546875 -3.867188 9.546875 -4.859375 L 9.546875 -11.734375 Z M 11.515625 -11.734375 "/></g></g></g><g fill="#d10606" fill-opacity="1"><g transform="translate(260.444449, 227.780947)"><g><path d="M 5.40625 -11.8125 C 6.914062 -11.8125 8.28125 -11.410156 9.5 -10.609375 L 8.6875 -8.875 C 7.488281 -9.59375 6.34375 -9.953125 5.25 -9.953125 C 4.65625 -9.953125 4.1875 -9.847656 3.84375 -9.640625 C 3.507812 -9.429688 3.34375 -9.128906 3.34375 -8.734375 C 3.34375 -8.335938 3.5 -8.003906 3.8125 -7.734375 C 4.125 -7.460938 4.515625 -7.257812 4.984375 -7.125 C 5.453125 -7 5.957031 -6.835938 6.5 -6.640625 C 7.050781 -6.453125 7.5625 -6.25 8.03125 -6.03125 C 8.5 -5.8125 8.882812 -5.46875 9.1875 -5 C 9.5 -4.539062 9.65625 -3.976562 9.65625 -3.3125 C 9.65625 -2.289062 9.242188 -1.472656 8.421875 -0.859375 C 7.597656 -0.242188 6.535156 0.0625 5.234375 0.0625 C 4.335938 0.0625 3.46875 -0.101562 2.625 -0.4375 C 1.789062 -0.769531 1.0625 -1.222656 0.4375 -1.796875 L 1.296875 -3.5 C 1.878906 -2.957031 2.523438 -2.535156 3.234375 -2.234375 C 3.953125 -1.941406 4.628906 -1.796875 5.265625 -1.796875 C 5.953125 -1.796875 6.488281 -1.921875 6.875 -2.171875 C 7.257812 -2.421875 7.453125 -2.769531 7.453125 -3.21875 C 7.453125 -3.625 7.296875 -3.960938 6.984375 -4.234375 C 6.671875 -4.503906 6.28125 -4.703125 5.8125 -4.828125 C 5.34375 -4.960938 4.832031 -5.117188 4.28125 -5.296875 C 3.738281 -5.484375 3.234375 -5.679688 2.765625 -5.890625 C 2.296875 -6.097656 1.90625 -6.429688 1.59375 -6.890625 C 1.28125 -7.347656 1.125 -7.898438 1.125 -8.546875 C 1.125 -9.546875 1.515625 -10.335938 2.296875 -10.921875 C 3.078125 -11.515625 4.113281 -11.8125 5.40625 -11.8125 Z M 5.40625 -11.8125 "/></g></g></g><g fill="#d10606" fill-opacity="1"><g transform="translate(277.584534, 227.780947)"><g><path d="M 9.921875 -9.953125 L 3.515625 -9.953125 L 3.515625 -6.796875 L 9.25 -6.796875 L 9.25 -5.015625 L 3.515625 -5.015625 L 3.515625 -1.78125 L 10.125 -1.78125 L 10.125 0 L 1.546875 0 L 1.546875 -11.734375 L 9.921875 -11.734375 Z M 9.921875 -9.953125 "/></g></g></g><g fill="#d10606" fill-opacity="1"><g transform="translate(295.294791, 227.780947)"><g><path d="M 5.40625 -11.8125 C 6.914062 -11.8125 8.28125 -11.410156 9.5 -10.609375 L 8.6875 -8.875 C 7.488281 -9.59375 6.34375 -9.953125 5.25 -9.953125 C 4.65625 -9.953125 4.1875 -9.847656 3.84375 -9.640625 C 3.507812 -9.429688 3.34375 -9.128906 3.34375 -8.734375 C 3.34375 -8.335938 3.5 -8.003906 3.8125 -7.734375 C 4.125 -7.460938 4.515625 -7.257812 4.984375 -7.125 C 5.453125 -7 5.957031 -6.835938 6.5 -6.640625 C 7.050781 -6.453125 7.5625 -6.25 8.03125 -6.03125 C 8.5 -5.8125 8.882812 -5.46875 9.1875 -5 C 9.5 -4.539062 9.65625 -3.976562 9.65625 -3.3125 C 9.65625 -2.289062 9.242188 -1.472656 8.421875 -0.859375 C 7.597656 -0.242188 6.535156 0.0625 5.234375 0.0625 C 4.335938 0.0625 3.46875 -0.101562 2.625 -0.4375 C 1.789062 -0.769531 1.0625 -1.222656 0.4375 -1.796875 L 1.296875 -3.5 C 1.878906 -2.957031 2.523438 -2.535156 3.234375 -2.234375 C 3.953125 -1.941406 4.628906 -1.796875 5.265625 -1.796875 C 5.953125 -1.796875 6.488281 -1.921875 6.875 -2.171875 C 7.257812 -2.421875 7.453125 -2.769531 7.453125 -3.21875 C 7.453125 -3.625 7.296875 -3.960938 6.984375 -4.234375 C 6.671875 -4.503906 6.28125 -4.703125 5.8125 -4.828125 C 5.34375 -4.960938 4.832031 -5.117188 4.28125 -5.296875 C 3.738281 -5.484375 3.234375 -5.679688 2.765625 -5.890625 C 2.296875 -6.097656 1.90625 -6.429688 1.59375 -6.890625 C 1.28125 -7.347656 1.125 -7.898438 1.125 -8.546875 C 1.125 -9.546875 1.515625 -10.335938 2.296875 -10.921875 C 3.078125 -11.515625 4.113281 -11.8125 5.40625 -11.8125 Z M 5.40625 -11.8125 "/></g></g></g><g fill="#b6b422" fill-opacity="1"><g transform="translate(146.877935, 150.856173)"><g><path d="M 54.328125 -0.96875 C 54.484375 -0.96875 54.5625 -0.804688 54.5625 -0.484375 C 54.5625 -0.160156 54.484375 0 54.328125 0 L 45 0 C 43.664062 0 41.082031 -2.234375 37.25 -6.703125 C 33.414062 -11.179688 28.847656 -17.332031 23.546875 -25.15625 C 21.671875 -24.78125 19.984375 -24.59375 18.484375 -24.59375 C 18.265625 -24.59375 17.113281 -24.671875 15.03125 -24.828125 L 15.03125 -6.515625 C 15.03125 -4.847656 15.203125 -3.640625 15.546875 -2.890625 C 15.898438 -2.140625 16.554688 -1.628906 17.515625 -1.359375 C 18.484375 -1.097656 20.035156 -0.96875 22.171875 -0.96875 C 22.335938 -0.96875 22.421875 -0.804688 22.421875 -0.484375 C 22.421875 -0.160156 22.335938 0 22.171875 0 C 20.566406 0 19.285156 -0.0234375 18.328125 -0.078125 L 12.859375 -0.15625 L 7.546875 -0.078125 C 6.585938 -0.0234375 5.25 0 3.53125 0 C 3.425781 0 3.375 -0.160156 3.375 -0.484375 C 3.375 -0.804688 3.425781 -0.96875 3.53125 -0.96875 C 5.675781 -0.96875 7.242188 -1.097656 8.234375 -1.359375 C 9.222656 -1.628906 9.90625 -2.148438 10.28125 -2.921875 C 10.65625 -3.703125 10.84375 -4.898438 10.84375 -6.515625 L 10.84375 -43.71875 C 10.84375 -45.320312 10.664062 -46.5 10.3125 -47.25 C 9.96875 -48 9.300781 -48.519531 8.3125 -48.8125 C 7.320312 -49.113281 5.785156 -49.265625 3.703125 -49.265625 C 3.535156 -49.265625 3.453125 -49.421875 3.453125 -49.734375 C 3.453125 -50.054688 3.535156 -50.21875 3.703125 -50.21875 L 7.546875 -50.140625 C 9.691406 -50.035156 11.460938 -49.984375 12.859375 -49.984375 C 14.035156 -49.984375 15.144531 -50.007812 16.1875 -50.0625 C 17.238281 -50.113281 18.140625 -50.164062 18.890625 -50.21875 C 20.816406 -50.382812 22.53125 -50.46875 24.03125 -50.46875 C 28.039062 -50.46875 31.15625 -49.488281 33.375 -47.53125 C 35.601562 -45.570312 36.71875 -42.988281 36.71875 -39.78125 C 36.71875 -36.9375 35.859375 -34.347656 34.140625 -32.015625 C 32.429688 -29.691406 30.160156 -27.859375 27.328125 -26.515625 C 31.929688 -19.984375 35.785156 -14.894531 38.890625 -11.25 C 42.003906 -7.601562 44.765625 -4.976562 47.171875 -3.375 C 49.578125 -1.769531 51.960938 -0.96875 54.328125 -0.96875 Z M 15.03125 -26.671875 C 16.53125 -26.515625 18.132812 -26.4375 19.84375 -26.4375 C 24.289062 -26.4375 27.460938 -27.359375 29.359375 -29.203125 C 31.265625 -31.054688 32.21875 -33.859375 32.21875 -37.609375 C 32.21875 -41.734375 31.210938 -44.734375 29.203125 -46.609375 C 27.203125 -48.484375 24.296875 -49.421875 20.484375 -49.421875 C 18.453125 -49.421875 17.035156 -49.046875 16.234375 -48.296875 C 15.429688 -47.546875 15.03125 -45.96875 15.03125 -43.5625 Z M 15.03125 -26.671875 "/></g></g></g><g fill="#d10606" fill-opacity="1"><g transform="translate(179.489377, 190.421553)"><g><path d="M 64.84375 -0.96875 C 65.007812 -0.96875 65.09375 -0.804688 65.09375 -0.484375 C 65.09375 -0.160156 65.007812 0 64.84375 0 C 63.1875 0 61.875 -0.0234375 60.90625 -0.078125 L 55.53125 -0.15625 L 50.546875 -0.078125 C 49.742188 -0.0234375 48.617188 0 47.171875 0 C 47.066406 0 47.015625 -0.160156 47.015625 -0.484375 C 47.015625 -0.804688 47.066406 -0.96875 47.171875 -0.96875 C 49.046875 -0.96875 50.425781 -1.113281 51.3125 -1.40625 C 52.195312 -1.695312 52.785156 -2.21875 53.078125 -2.96875 C 53.367188 -3.71875 53.460938 -4.898438 53.359375 -6.515625 L 52 -43.875 L 33.1875 -0.5625 C 33.082031 -0.34375 32.867188 -0.234375 32.546875 -0.234375 C 32.273438 -0.234375 32.035156 -0.34375 31.828125 -0.5625 L 12.21875 -43.5625 L 12.140625 -43.71875 L 11.484375 -8.359375 C 11.429688 -5.566406 11.882812 -3.632812 12.84375 -2.5625 C 13.8125 -1.5 15.609375 -0.96875 18.234375 -0.96875 C 18.347656 -0.96875 18.40625 -0.804688 18.40625 -0.484375 C 18.40625 -0.160156 18.347656 0 18.234375 0 C 16.734375 0 15.582031 -0.0234375 14.78125 -0.078125 L 10.453125 -0.15625 L 6.515625 -0.078125 C 5.816406 -0.0234375 4.769531 0 3.375 0 C 3.269531 0 3.21875 -0.160156 3.21875 -0.484375 C 3.21875 -0.804688 3.269531 -0.96875 3.375 -0.96875 C 5.625 -0.96875 7.21875 -1.515625 8.15625 -2.609375 C 9.09375 -3.710938 9.585938 -5.628906 9.640625 -8.359375 L 10.453125 -46.453125 C 8.785156 -48.328125 6.613281 -49.265625 3.9375 -49.265625 C 3.832031 -49.265625 3.78125 -49.421875 3.78125 -49.734375 C 3.78125 -50.054688 3.832031 -50.21875 3.9375 -50.21875 L 6.671875 -50.140625 C 7.203125 -50.085938 7.898438 -50.0625 8.765625 -50.0625 C 9.617188 -50.0625 10.335938 -50.085938 10.921875 -50.140625 C 11.515625 -50.191406 11.972656 -50.21875 12.296875 -50.21875 C 13.046875 -50.21875 13.632812 -49.960938 14.0625 -49.453125 C 14.488281 -48.953125 15.128906 -47.816406 15.984375 -46.046875 L 34.078125 -6.984375 L 52.078125 -48.21875 C 52.335938 -48.800781 52.695312 -49.28125 53.15625 -49.65625 C 53.613281 -50.03125 54.054688 -50.21875 54.484375 -50.21875 C 54.703125 -50.21875 55.050781 -50.191406 55.53125 -50.140625 C 56.007812 -50.085938 56.675781 -50.0625 57.53125 -50.0625 L 61.15625 -50.140625 C 61.6875 -50.191406 62.515625 -50.21875 63.640625 -50.21875 C 63.753906 -50.21875 63.8125 -50.054688 63.8125 -49.734375 C 63.8125 -49.421875 63.753906 -49.265625 63.640625 -49.265625 C 60.859375 -49.265625 58.890625 -48.898438 57.734375 -48.171875 C 56.585938 -47.453125 56.039062 -46.019531 56.09375 -43.875 L 57.625 -6.515625 C 57.675781 -4.847656 57.875 -3.640625 58.21875 -2.890625 C 58.570312 -2.140625 59.242188 -1.628906 60.234375 -1.359375 C 61.222656 -1.097656 62.757812 -0.96875 64.84375 -0.96875 Z M 64.84375 -0.96875 "/></g></g></g><g clip-path="url(#b5b39ab925)"><g clip-path="url(#e793cd5ea8)"><path fill="#223046" d="M 194.753906 124.605469 L 206.828125 131.890625 L 179.527344 177.128906 L 167.453125 169.839844 Z M 194.753906 124.605469 " fill-opacity="1" fill-rule="nonzero"/></g></g><g clip-path="url(#ca7851373b)"><g clip-path="url(#d72df3a98f)"><path fill="#223046" d="M 178.839844 131.804688 L 195.296875 141.738281 L 185.171875 158.511719 L 168.714844 148.582031 Z M 178.839844 131.804688 " fill-opacity="1" fill-rule="nonzero"/></g></g><g clip-path="url(#3df86ce4c6)"><g clip-path="url(#85ee5718dd)"><path fill="#223046" d="M 197.007812 133.59375 L 213.445312 143.515625 L 204.40625 158.492188 L 187.96875 148.570312 Z M 197.007812 133.59375 " fill-opacity="1" fill-rule="nonzero"/></g></g><path stroke-linecap="butt" transform="matrix(0.425288, -0.617762, 0.617762, 0.425288, 173.063693, 173.16721)" fill="none" stroke-linejoin="miter" d="M -0.00271132 0.999005 L 92.087748 0.997539 " stroke="#1d54b1" stroke-width="2" stroke-opacity="1" stroke-miterlimit="4"/></svg>